<svg width="25" height="17" viewBox="0 0 25 17" fill="none" xmlns="http://www.w3.org/2000/svg">
<path d="M24.4791 6.26172H0.520848C0.208349 6.26172 0 6.47046 0 6.78354V14.0888C0 15.5499 1.14585 16.6978 2.60414 16.6978H22.3957C23.8541 16.6978 24.9999 15.5498 24.9999 14.0888V6.78354C24.9999 6.47046 24.7916 6.26172 24.4791 6.26172ZM3.64584 10.4362H7.81248C8.12498 10.4362 8.33333 10.6449 8.33333 10.958C8.33333 11.2711 8.12498 11.4798 7.81248 11.4798H3.64584C3.33334 11.4798 3.12499 11.2711 3.12499 10.958C3.12499 10.6449 3.33334 10.4362 3.64584 10.4362ZM10.9375 13.567H3.64584C3.33334 13.567 3.12499 13.3583 3.12499 13.0452C3.12499 12.7321 3.33334 12.5234 3.64584 12.5234H10.9375C11.25 12.5234 11.4583 12.7321 11.4583 13.0452C11.4583 13.3583 11.25 13.567 10.9375 13.567ZM19.7916 13.567C19.3749 13.567 19.0624 13.4627 18.7499 13.2539C18.4374 13.4627 18.1249 13.567 17.7083 13.567C16.5625 13.567 15.625 12.6278 15.625 11.4798C15.625 10.3318 16.5625 9.39255 17.7083 9.39255C18.1249 9.39255 18.4374 9.4969 18.7499 9.70564C19.0624 9.4969 19.3749 9.39255 19.7916 9.39255C20.9374 9.39255 21.8749 10.3318 21.8749 11.4798C21.8749 12.6278 20.9374 13.567 19.7916 13.567Z" fill="#121212"/>
<path d="M22.3958 0H2.60415C1.14585 0 0 1.14799 0 2.60907V3.65267C0 3.96576 0.208349 4.1745 0.520849 4.1745H24.4792C24.7917 4.1745 25 3.96576 25 3.65267V2.60907C25 1.14799 23.8541 0 22.3958 0Z" fill="#121212"/>
<rect y="3" width="2" height="9" fill="#121212"/>
<rect x="23" y="3" width="2" height="9" fill="#121212"/>
</svg>
